<svg xmlns="http://www.w3.org/2000/svg" xmlns:xlink="http://www.w3.org/1999/xlink" width="500" zoomAndPan="magnify" viewBox="0 0 375 374.999991" height="500" preserveAspectRatio="xMidYMid meet" version="1.0"><defs><clipPath id="fca8523d4d"><path d="M 0 7.265625 L 371 7.265625 L 371 368 L 0 368 Z M 0 7.265625 " clip-rule="nonzero"/></clipPath></defs><rect x="-37.5" width="450" fill="#ffffff" y="-37.499999" height="449.999989" fill-opacity="1"/><rect x="-37.5" width="450" fill="#ffffff" y="-37.499999" height="449.999989" fill-opacity="1"/><g clip-path="url(#fca8523d4d)"><path fill="#000000" d="M 263.382812 141.320312 L 287.207031 100.019531 C 298.355469 80.695312 323.046875 74.070312 342.355469 85.230469 C 361.667969 96.386719 368.28125 121.097656 357.132812 140.421875 L 354.972656 144.171875 L 357.46875 145.613281 C 368.765625 152.144531 374.402344 165.328125 367.59375 177.125 L 346.542969 213.617188 C 339.734375 225.414062 325.511719 227.125 314.210938 220.59375 C 313.363281 220.105469 312.566406 219.558594 311.824219 218.960938 L 283.386719 268.257812 L 263.382812 278.898438 L 263.382812 359.734375 C 263.382812 364.242188 259.730469 367.898438 255.226562 367.898438 L 8.933594 367.898438 C 4.429688 367.898438 0.777344 364.242188 0.777344 359.734375 L 0.777344 72.441406 C 0.777344 72.167969 0.792969 71.898438 0.816406 71.628906 C 0.835938 71.429688 0.871094 71.234375 0.90625 71.042969 C 0.917969 70.972656 0.921875 70.902344 0.9375 70.835938 C 0.984375 70.601562 1.042969 70.375 1.109375 70.148438 C 1.117188 70.121094 1.121094 70.089844 1.132812 70.0625 C 1.203125 69.832031 1.285156 69.609375 1.371094 69.390625 C 1.382812 69.363281 1.390625 69.339844 1.402344 69.316406 C 1.488281 69.105469 1.585938 68.902344 1.6875 68.703125 C 1.707031 68.667969 1.722656 68.628906 1.742188 68.589844 C 1.839844 68.414062 1.945312 68.242188 2.054688 68.070312 C 2.089844 68.015625 2.117188 67.957031 2.15625 67.902344 C 2.257812 67.75 2.371094 67.605469 2.480469 67.460938 C 2.535156 67.394531 2.578125 67.324219 2.632812 67.257812 C 2.753906 67.109375 2.890625 66.96875 3.023438 66.832031 C 3.070312 66.777344 3.113281 66.722656 3.164062 66.671875 L 60.253906 9.539062 C 60.304688 9.484375 60.363281 9.441406 60.414062 9.390625 C 60.554688 9.261719 60.691406 9.125 60.84375 9.003906 C 60.90625 8.949219 60.976562 8.90625 61.042969 8.851562 C 61.1875 8.742188 61.332031 8.628906 61.484375 8.527344 C 61.539062 8.492188 61.597656 8.460938 61.652344 8.425781 C 61.824219 8.316406 61.992188 8.207031 62.171875 8.113281 C 62.207031 8.09375 62.25 8.078125 62.285156 8.058594 C 62.484375 7.957031 62.683594 7.855469 62.894531 7.769531 C 62.917969 7.757812 62.945312 7.753906 62.96875 7.742188 C 63.191406 7.652344 63.414062 7.570312 63.644531 7.5 C 63.671875 7.492188 63.699219 7.488281 63.726562 7.480469 C 63.953125 7.414062 64.179688 7.355469 64.414062 7.308594 C 64.484375 7.292969 64.554688 7.289062 64.621094 7.273438 C 64.816406 7.242188 65.007812 7.207031 65.207031 7.1875 C 65.476562 7.164062 65.746094 7.148438 66.019531 7.148438 L 255.226562 7.148438 C 259.730469 7.148438 263.382812 10.804688 263.382812 15.308594 Z M 210.363281 289.910156 C 210.039062 289.84375 209.699219 289.820312 209.347656 289.84375 C 206.738281 290.023438 203.742188 291.011719 200.191406 292.699219 C 198.695312 293.414062 197.140625 294.230469 195.332031 295.238281 C 194.242188 295.84375 190.648438 297.902344 190.84375 297.792969 C 189.25 298.695312 188.191406 299.261719 187.332031 299.660156 C 183.160156 301.59375 181.054688 302.441406 179.328125 302.699219 C 179.578125 301.882812 179.78125 301.414062 181.257812 298.074219 C 181.453125 297.640625 181.613281 297.277344 181.761719 296.925781 C 182.851562 294.394531 183.460938 292.613281 183.660156 291.0625 C 183.660156 291.078125 184.027344 289.488281 184.195312 288.640625 C 184.492188 287.152344 184.6875 285.746094 184.761719 284.40625 C 185.035156 279.179688 183.25 275.644531 178.527344 275.917969 C 175.234375 276.125 165.355469 284.425781 151.507812 297.859375 L 152.023438 296.28125 C 156.710938 284.238281 143.59375 272.9375 132.316406 280.332031 L 125.082031 285.339844 C 123.328125 286.484375 122.804688 288.90625 123.925781 290.746094 L 126.1875 294.402344 C 127.324219 296.273438 129.769531 296.832031 131.605469 295.621094 L 139.246094 290.347656 C 140.113281 289.777344 141.257812 290.765625 140.832031 291.863281 L 130.566406 319.65625 C 129.105469 323.390625 131.589844 328.011719 136.148438 328.011719 C 137.75 328.011719 139.289062 327.363281 140.417969 326.1875 C 148.699219 317.660156 161.675781 304.824219 169.59375 297.507812 C 169.523438 297.691406 169.449219 297.878906 169.375 298.074219 C 169.089844 298.800781 168.863281 299.402344 168.652344 299.980469 C 166.644531 305.460938 166.175781 308.769531 168.160156 311.011719 C 170.527344 313.691406 173.910156 315.035156 178.097656 315.035156 C 181.019531 315.035156 183.867188 314.367188 187.214844 313.042969 C 188.625 312.484375 189.707031 312.003906 192.265625 310.820312 C 193.167969 310.402344 194.226562 309.824219 195.695312 308.960938 C 196.347656 308.574219 199.03125 306.964844 199.691406 306.574219 C 200.632812 306.019531 201.449219 305.550781 202.222656 305.121094 C 205.574219 303.265625 208.078125 302.238281 209.808594 302.09375 C 211.863281 301.921875 213.453125 300.246094 213.453125 298.164062 L 213.453125 295.949219 C 212.023438 294.144531 210.980469 292.089844 210.363281 289.910156 Z M 57.863281 35.015625 L 28.621094 64.28125 L 57.863281 64.28125 Z M 200.484375 184.0625 C 205.632812 184.0625 209.3125 180.015625 209.3125 174.859375 C 209.3125 169.707031 205.632812 166.023438 200.484375 166.023438 L 56.296875 166.023438 C 51.144531 166.023438 47.101562 169.707031 47.101562 174.859375 C 47.101562 180.015625 51.144531 184.0625 56.296875 184.0625 Z M 200.484375 140.773438 C 205.632812 140.773438 209.3125 136.722656 209.3125 131.570312 C 209.3125 126.417969 205.632812 122.734375 200.484375 122.734375 L 56.296875 122.734375 C 51.144531 122.734375 47.101562 126.417969 47.101562 131.570312 C 47.101562 136.722656 51.144531 140.773438 56.296875 140.773438 Z M 200.484375 227.132812 C 205.632812 227.132812 209.3125 223.449219 209.3125 218.296875 C 209.3125 213.144531 205.632812 209.09375 200.484375 209.09375 L 56.296875 209.09375 C 51.144531 209.09375 47.101562 213.144531 47.101562 218.296875 C 47.101562 223.449219 51.144531 227.132812 56.296875 227.132812 Z M 332.003906 160.894531 L 343.242188 167.386719 L 325.867188 197.503906 C 322.683594 196.4375 319.085938 197.71875 317.339844 200.742188 C 315.351562 204.191406 316.53125 208.605469 319.980469 210.597656 C 325.738281 213.925781 333.117188 213.800781 336.554688 207.84375 L 357.605469 171.351562 C 361.042969 165.394531 357.460938 158.9375 351.703125 155.613281 L 339.214844 148.398438 L 347.144531 134.652344 C 355.109375 120.847656 350.382812 103.195312 336.589844 95.226562 C 322.796875 87.257812 305.160156 91.988281 297.195312 105.789062 L 225.101562 230.757812 L 226.625 274.292969 L 222.011719 282.289062 C 220.417969 285.050781 221.363281 288.582031 224.125 290.175781 C 226.882812 291.769531 230.410156 290.824219 232 288.0625 L 236.613281 280.066406 L 275.050781 259.617188 Z M 332.003906 160.894531 " fill-opacity="1" fill-rule="nonzero"/></g></svg>